<?xml version="1.0" encoding="UTF-8" standalone="no"?>
<!-- Created with Inkscape (http://www.inkscape.org/) -->

<svg
   xmlns:osb="http://www.openswatchbook.org/uri/2009/osb"
   xmlns:dc="http://purl.org/dc/elements/1.1/"
   xmlns:cc="http://creativecommons.org/ns#"
   xmlns:rdf="http://www.w3.org/1999/02/22-rdf-syntax-ns#"
   xmlns:svg="http://www.w3.org/2000/svg"
   xmlns="http://www.w3.org/2000/svg"
   xmlns:sodipodi="http://sodipodi.sourceforge.net/DTD/sodipodi-0.dtd"
   xmlns:inkscape="http://www.inkscape.org/namespaces/inkscape"
   width="210mm"
   height="297mm"
   viewBox="0 0 744.09448819 1052.3622047"
   id="svg2"
   version="1.1"
   inkscape:version="0.91 r13725"
   sodipodi:docname="logo.svg">
  <defs
     id="defs4">
    <inkscape:perspective
       sodipodi:type="inkscape:persp3d"
       inkscape:vp_x="0 : 526.1811 : 1"
       inkscape:vp_y="0 : 1000 : 0"
       inkscape:vp_z="744.09449 : 526.1811 : 1"
       inkscape:persp3d-origin="372.04724 : 350.7874 : 1"
       id="perspective5600" />
    <linearGradient
       id="linearGradient5586"
       osb:paint="solid">
      <stop
         style="stop-color:#7c9900;stop-opacity:1;"
         offset="0"
         id="stop5588" />
    </linearGradient>
  </defs>
  <sodipodi:namedview
     id="base"
     pagecolor="#ffffff"
     bordercolor="#666666"
     borderopacity="1.0"
     inkscape:pageopacity="0.0"
     inkscape:pageshadow="2"
     inkscape:zoom="1"
     inkscape:cx="320.77403"
     inkscape:cy="889.3187"
     inkscape:document-units="px"
     inkscape:current-layer="layer1"
     showgrid="false"
     inkscape:window-width="1280"
     inkscape:window-height="687"
     inkscape:window-x="0"
     inkscape:window-y="1"
     inkscape:window-maximized="1" />
  <metadata
     id="metadata7">
    <rdf:RDF>
      <cc:Work
         rdf:about="">
        <dc:format>image/svg+xml</dc:format>
        <dc:type
           rdf:resource="http://purl.org/dc/dcmitype/StillImage" />
        <dc:title />
      </cc:Work>
    </rdf:RDF>
  </metadata>
  <g
     inkscape:label="Capa 1"
     inkscape:groupmode="layer"
     id="layer1">
    <ellipse
       style="fill:#2a3800;fill-opacity:1;stroke:none;stroke-width:5.4000001;stroke-miterlimit:4;stroke-dasharray:none;stroke-opacity:1"
       id="path5672"
       cx="78"
       cy="77.862213"
       rx="78"
       ry="77.5" />
    <path
       style="fill:#809900;fill-opacity:1;stroke:none;stroke-width:5.4000001;stroke-miterlimit:4;stroke-dasharray:none;stroke-opacity:1"
       id="path5698"
       d="m 38.41035,108.00209 c 0.27694,-4.6253 0.19789,-9.26092 0.92424,-13.85397 0.24303,-1.53676 0.59905,-3.05352 0.89858,-4.58027 2.14216,-9.04132 5.15231,-17.83744 8.6854,-26.42075 2.63256,-6.27834 6.72489,-11.73758 10.83035,-17.10785 3.33684,-3.97035 6.76358,-7.96556 10.75482,-11.30711 2.46547,-2.06414 3.13355,-2.36249 5.79101,-4.03118 7.94698,-3.8177 16.57012,-11.31484 26.08839,-12.20112 3.54636,0.42978 4.55505,3.35172 5.54723,6.33273 0.51567,1.44253 0.97719,2.89322 1.30196,4.39005 0,0 -12.99303,6.93419 -12.99303,6.93419 l 0,0 c -0.24188,-1.45971 -0.59259,-2.89406 -1.05155,-4.3022 -0.80379,-2.36768 -1.45256,-4.81525 -4.43735,-4.66099 -1.86823,0.34225 -3.63769,0.83535 -5.41757,1.51629 -4.37008,1.67188 -13.9953,7.19311 4.0322,-3.0504 -2.68591,1.53476 -3.49954,1.87288 -5.97848,3.82171 -4.05639,3.18895 -7.48692,7.14238 -10.82345,11.0461 -4.05114,5.35524 -8.174,10.74129 -11.06379,16.83712 -3.75116,8.4633 -6.91358,17.18478 -8.97013,26.22757 -0.27194,1.46799 -0.61245,2.92492 -0.81583,4.40397 -0.60537,4.40226 -0.379,8.87341 -0.1237,13.29093 0,0 -13.1793,6.71518 -13.1793,6.71518 z"
       inkscape:connector-curvature="0" />
    <path
       style="fill:#809900;fill-opacity:1;stroke:none;stroke-width:5.4000001;stroke-miterlimit:4;stroke-dasharray:none;stroke-opacity:1"
       id="path5700"
       d="m 45.59542,57.00489 c 4.37293,0.15372 8.74943,0.19095 13.12453,0.24322 6.37317,0.0994 12.7458,-0.028 19.1183,-0.0999 2.72437,-0.003 5.44793,-0.11837 8.17212,-0.11616 1.85562,-0.0126 3.71122,0.0178 5.56692,-0.002 1.03547,-0.26689 0.53519,-0.12228 1.5021,-0.42947 0,0 -11.76308,8.95308 -11.76308,8.95308 l 0,0 c -1.05396,0.14838 -0.49993,0.0966 -1.66347,0.14 -1.85417,-0.02 -3.70827,0.0114 -5.56237,-0.002 -2.61762,0.002 -5.23453,-0.11361 -7.85235,-0.11616 -6.28083,-0.0731 -12.56174,-0.20048 -18.84329,-0.0999 -4.59829,0.0532 -9.19771,0.0937 -13.794077,0.24322 0,0 11.994667,-8.71463 11.994667,-8.71463 z"
       inkscape:connector-curvature="0" />
    <path
       style="fill:#809900;fill-opacity:1;stroke:none;stroke-width:5.4000001;stroke-miterlimit:4;stroke-dasharray:none;stroke-opacity:1"
       id="path5704"
       d="m 106.08791,68.68888 c -5.31051,-0.26517 -10.60564,-0.21874 -15.90202,0.23479 -4.38876,0.44645 -8.71512,1.52915 -12.73146,3.36986 -0.84982,0.38947 -3.30834,1.74027 -2.50014,1.27049 3.32354,-1.93188 6.6994,-3.77232 10.0491,-5.65848 -3.07494,2.07368 -5.35934,4.85343 -6.6967,8.29328 -0.75972,2.54119 -0.94462,5.2305 -0.76893,7.86745 0.39495,2.41937 1.84593,3.90888 3.93404,5.01863 1.9682,0.89465 4.1065,0.94577 6.22656,1.0063 0.41103,-0.10676 0.82737,-0.19488 1.2331,-0.32029 1.86233,-0.57565 2.93504,-1.20648 2.87704,-1.17275 -20.12697,11.70713 -12.15777,7.06995 -7.88202,4.15182 3.39749,-2.31052 6.53502,-4.96334 9.66477,-7.6165 2.89477,-2.26744 5.4006,-4.8721 7.65948,-7.75914 1.15065,-1.46459 2.24706,-2.97167 3.34499,-4.47608 0.15244,-0.20887 0.22908,-0.49751 0.45003,-0.63184 4.30679,-2.61845 8.71783,-5.06146 13.07674,-7.59219 1.40823,1.1985 1.45377,2.87469 1.46502,4.58688 0.18524,3.0339 -0.95427,5.74588 -2.17084,8.44934 -1.97491,4.4061 -4.43868,8.57289 -6.97997,12.67086 -2.78567,4.63883 -6.39461,8.69168 -9.76096,12.90246 -3.23835,4.36223 -6.70538,8.50574 -10.79931,12.08452 -7.2675,5.84118 -15.61383,10.39371 -24.19225,14.01942 -4.58703,2.22245 -9.66621,2.57505 -14.66817,2.89952 -4.3705,-0.0269 -8.92934,0.89056 -13.2117,-0.30192 -2.01071,-1.35847 -2.40006,-3.61617 -2.38964,-5.88563 0,0 13.19051,-6.5749 13.19051,-6.5749 l 0,0 c -0.28654,1.45324 -0.21126,3.39648 1.27238,4.1412 4.10173,0.92893 8.37572,0.33693 12.5293,0.21218 5.01047,-0.4389 9.98557,-1.11895 14.54344,-3.40075 1.63172,-0.72302 2.38998,-1.02806 3.97815,-1.85716 0.68813,-0.35924 2.70624,-1.52179 2.03817,-1.1265 -19.29993,11.41946 -10.17705,6.3231 -6.32133,3.22117 4.22773,-3.4124 7.79601,-7.43219 10.97613,-11.83818 3.26306,-4.24951 6.98814,-8.16727 9.79287,-12.75628 2.53288,-3.97178 4.94446,-8.06501 6.82692,-12.3884 1.12118,-2.45576 2.44871,-4.97401 2.23151,-7.75301 -0.0125,-0.33008 -0.28394,-3.30343 -0.038,-2.10868 4.08627,-2.42077 8.17253,-4.84154 12.25879,-7.26231 -0.21501,0.15682 -0.46407,0.27534 -0.64504,0.47046 -1.2977,1.39906 -2.17333,3.17862 -3.47275,4.58171 -2.28781,2.95539 -4.60376,5.8228 -7.63496,8.0719 -3.13081,2.65376 -6.2201,5.35951 -9.5724,7.73509 -6.63482,4.6103 -13.37336,10.33401 -21.56101,11.19018 -2.31496,-0.11948 -4.58227,-0.41588 -6.6229,-1.61079 -2.33624,-1.50708 -4.0974,-3.40433 -4.61627,-6.23167 -0.28988,-2.8193 -0.0725,-5.68095 0.53359,-8.44955 1.24227,-3.76648 3.42888,-6.86896 6.60395,-9.3006 11.45871,-6.66873 17.13501,-11.30379 29.72896,-12.45535 5.5153,-0.43291 11.03545,-0.43559 16.56352,-0.57391 0,0 -11.91031,8.65335 -11.91031,8.65335 z"
       inkscape:connector-curvature="0" />
  </g>
</svg>
